# xmcd CD database file generated by Grip 3.2.0
# 
# Track frame offsets:
#       150
#       14474
#       24784
#       43167
#       68432
#       83101
#       113801
#       125723
#       139663
#       158328
#       187831
#       203316
#       216735
# 
# Disc length: 3084 seconds
# 
# Revision: 1
# Processed by: cddbd v1.5.2PL0 Copyright (c) Steve Scherf et al.
# Submitted via: Grip 3.2.0
# 
DISCID=a30c0a0d
DTITLE=Paul Rodgers - The Royal Sessions
DYEAR=2014
DGENRE=Blues
TTITLE0=I Thank You
TTITLE1=Down Don't Bother Me
TTITLE2=I Can't Stand the Rain
TTITLE3=I've Been Loving You Too Long (To Stop Now)
TTITLE4=That's How Strong My Love is
TTITLE5=Walk on by
TTITLE6=Any Ole Way
TTITLE7=It's Growing
TTITLE8=Born Under a Bad Sign
TTITLE9=I've Got Dreams to Remember
TTITLE10=Shake
TTITLE11=Walk in My Shadow
TTITLE12=Wonderful World
EXTD=
EXTT0=
EXTT1=
EXTT2=
EXTT3=
EXTT4=
EXTT5=
EXTT6=
EXTT7=
EXTT8=
EXTT9=
EXTT10=
EXTT11=
EXTT12=
PLAYORDER=
